<svg width="16" height="18" viewBox="0 0 16 18" fill="none" xmlns="http://www.w3.org/2000/svg">
<path d="M16 6.98303C16 10.2967 13.3137 12.983 10 12.983C6.68629 12.983 4 10.2967 4 6.98303C4 3.66932 6.68629 0.983032 10 0.983032C13.3137 0.983032 16 3.66932 16 6.98303ZM5.46156 6.98303C5.46156 9.48954 7.49349 11.5215 10 11.5215C12.5065 11.5215 14.5384 9.48954 14.5384 6.98303C14.5384 4.47652 12.5065 2.44459 10 2.44459C7.49349 2.44459 5.46156 4.47652 5.46156 6.98303Z" fill="#727272"/>
<rect y="16.0883" width="8.63403" height="1.31337" transform="rotate(-45 0 16.0883)" fill="#727272"/>
</svg>
