<svg width="21" height="21" viewBox="0 0 21 21" fill="none" xmlns="http://www.w3.org/2000/svg">
<path d="M18.75 0H2.25C1.00781 0 0 1.00781 0 2.25V18.75C0 19.9922 1.00781 21 2.25 21H18.75C19.9922 21 21 19.9922 21 18.75V2.25C21 1.00781 19.9922 0 18.75 0ZM16.4578 7.44375C16.4672 7.575 16.4672 7.71094 16.4672 7.84219C16.4672 11.9062 13.3734 16.5891 7.72031 16.5891C5.97656 16.5891 4.35938 16.0828 3 15.2109C3.24844 15.2391 3.4875 15.2484 3.74063 15.2484C5.17969 15.2484 6.50156 14.7609 7.55625 13.9359C6.20625 13.9078 5.07188 13.0219 4.68281 11.8031C5.15625 11.8734 5.58281 11.8734 6.07031 11.7469C4.66406 11.4609 3.60938 10.2234 3.60938 8.72812V8.69062C4.01719 8.92031 4.49531 9.06094 4.99687 9.07969C4.5752 8.7992 4.22952 8.41869 3.99069 7.9721C3.75186 7.52552 3.6273 7.02675 3.62813 6.52031C3.62813 5.94844 3.77813 5.42344 4.04531 4.96875C5.55938 6.83437 7.83281 8.05313 10.3828 8.18438C9.94687 6.09844 11.5078 4.40625 13.3828 4.40625C14.2687 4.40625 15.0656 4.77656 15.6281 5.37656C16.3219 5.24531 16.9875 4.9875 17.5781 4.63594C17.3484 5.34844 16.8656 5.94844 16.2281 6.32812C16.8469 6.2625 17.4469 6.08906 18 5.85C17.5828 6.46406 17.0578 7.00781 16.4578 7.44375Z" fill="black"/>
</svg>
